<svg xmlns="http://www.w3.org/2000/svg" width="38" height="38" viewBox="0 0 115.56 115.55"><path fill="#ff6100" d="M87.14,111.55a10.66,10.66,0,0,0,7.74,4l.59,0a10.65,10.65,0,0,0,7.54-3.12l9.43-9.42a10.68,10.68,0,0,0-.87-15.87L74.86,57.76,111.57,28.4a10.68,10.68,0,0,0,.88-15.87L103,3.11A11.11,11.11,0,0,0,94.88,0a10.67,10.67,0,0,0-7.74,4L57.78,40.68,28.42,4a10.66,10.66,0,0,0-7.74-4,11.39,11.39,0,0,0-8.14,3.1L3.12,12.52A10.68,10.68,0,0,0,4,28.4L40.7,57.76,4,87.13A10.68,10.68,0,0,0,3.12,103l9.43,9.42a10.65,10.65,0,0,0,7.54,3.13l.59,0a10.67,10.67,0,0,0,7.74-4l29.36-36.7Z"/></svg>