<?xml version="1.0" encoding="utf-8"?><svg xmlns="http://www.w3.org/2000/svg" xmlns:xlink="http://www.w3.org/1999/xlink" style="display:none"><symbol viewbox="0 0 289.04 492" id="arrow-left" xmlns="http://www.w3.org/2000/svg"><title>arrow-left</title><path d="M97.13 246.1L281.18 62a27 27 0 0 0 0-38.06L265.06 7.86a27 27 0 0 0-38.06 0L7.85 227a27.16 27.16 0 0 0 0 38.2l218.94 218.94a27 27 0 0 0 38.06 0L281 468a27 27 0 0 0 0-38z"/></symbol><symbol viewbox="0 0 289.05 492" id="arrow-right" xmlns="http://www.w3.org/2000/svg"><title>arrow-right</title><path d="M281.2 226.8L62.25 7.86a27 27 0 0 0-38.06 0L8.06 24a27 27 0 0 0 0 38l183.86 183.9L7.86 430a27 27 0 0 0 0 38.07L24 484.14a27 27 0 0 0 38.06 0L281.2 265a27.16 27.16 0 0 0 0-38.2z"/></symbol><symbol viewbox="0 0 477.175 477.175" id="back" xmlns="http://www.w3.org/2000/svg"><path d="M145.188 238.575l215.5-215.5c5.3-5.3 5.3-13.8 0-19.1s-13.8-5.3-19.1 0l-225.1 225.1c-5.3 5.3-5.3 13.8 0 19.1l225.1 225c2.6 2.6 6.1 4 9.5 4s6.9-1.3 9.5-4c5.3-5.3 5.3-13.8 0-19.1l-215.4-215.5z"/></symbol><symbol viewbox="-49 141 512 512" id="balloons_" xmlns="http://www.w3.org/2000/svg"><path d="M433.344 327.604c-14.6-29.05-38.997-49.431-68.698-57.389a104.282 104.282 0 0 0-14.486-2.798C340.772 196.008 285.419 141 218.739 141c-65.037 0-119.302 52.329-130.649 121.169a111.16 111.16 0 0 0-33.206 3.673c-31.687 8.491-57.719 30.241-73.301 61.244-15.385 30.612-18.72 66.647-9.39 101.467 8.009 29.892 24.347 55.686 47.246 74.595 22.076 18.231 48.903 28.4 75.687 28.734-2.487 5.725-3.811 11.813-3.811 17.481-.001 13.613 7.51 24.083 19.601 27.322 3.325.891 6.522 1.342 9.505 1.342a26.39 26.39 0 0 0 7.156-.969c.919 6.433 1.697 14.257 2.462 21.947.946 9.514 2.018 20.295 3.54 31.273.694 5.004 4.979 8.626 9.892 8.626.457 0 .921-.031 1.386-.096 5.47-.759 9.289-5.808 8.531-11.277-1.47-10.595-2.521-21.172-3.449-30.504-.972-9.775-1.808-18.173-2.909-25.156 5.139-1.198 10.083-4.146 14.75-8.815 7.869-7.868 9.827-18.548 5.373-29.3-2.828-6.826-7.879-12.875-14.057-17.425 13.782-8.189 25.833-19.368 35.49-33.012.57.384 1.148.761 1.756 1.112 5.778 3.337 11.435 5.027 16.814 5.027.451 0 .898-.017 1.343-.04-.823 7.16-2.268 15.974-3.763 25.075-6.704 40.826-15.887 96.737 5.341 133.504a9.992 9.992 0 0 0 13.658 3.659c4.782-2.761 6.42-8.877 3.66-13.658-17.655-30.579-9.142-82.416-2.926-120.265 1.815-11.054 3.356-20.469 4.144-28.336.564.038 1.131.061 1.705.061h.001c5.377 0 11.035-1.692 16.813-5.027.176-.102.336-.218.51-.323 7.15 7.971 15.255 14.715 24.138 20.108-5.481 4.234-9.947 9.734-12.499 15.897-4.196 10.132-2.271 20.612 5.153 28.035 4.082 4.082 8.395 6.786 12.879 8.085-10.021 40.263-2.649 68.904-2.292 70.239 1.195 4.47 5.236 7.419 9.653 7.419.855 0 1.724-.11 2.589-.342 5.334-1.426 8.503-6.907 7.077-12.241-.073-.274-6.377-24.796 2.298-59.929 2.14.595 4.412.914 6.798.914h.002c2.837 0 5.874-.429 9.029-1.274 11.573-3.102 18.763-13.105 18.763-26.108 0-5.063-1.12-10.481-3.226-15.631 24.764-.551 49.505-10.029 69.911-26.879 21.436-17.702 36.728-41.844 44.224-69.819 8.732-32.588 5.609-66.319-8.795-94.978zM218.739 160.997c58.817 0 107.259 51.298 112.379 116.509v.003c.149 1.913.262 3.824.338 5.72l.008.241c.034.87.061 1.738.078 2.601.007.347.007.696.012 1.043.008.612.019 1.226.019 1.832 0 63.835-42.506 118.368-97.738 126.799l-.046.007c-.819.125-1.642.237-2.466.341l-.291.038c-.801.099-1.605.186-2.411.266-3.258.322-6.552.497-9.882.497a100.05 100.05 0 0 1-17.974-1.631c-.346-.063-.691-.129-1.037-.195-.518-.1-1.035-.202-1.55-.31-.402-.085-.803-.173-1.204-.262-.466-.104-.932-.207-1.396-.317-.447-.106-.892-.219-1.337-.331-.424-.106-.848-.211-1.27-.324-.48-.128-.956-.263-1.434-.397-.39-.11-.781-.216-1.17-.331-.505-.15-1.007-.308-1.51-.464-.361-.113-.724-.22-1.084-.337-.5-.162-.995-.335-1.492-.504a99.178 99.178 0 0 1-2.86-1.023c-.198-.074-.398-.145-.596-.22-.661-.253-1.318-.516-1.974-.782-.151-.062-.304-.12-.455-.183-.706-.291-1.409-.591-2.108-.898l-.262-.113c-.766-.337-1.527-.684-2.285-1.04l-.011-.005c-38.108-17.926-65.422-58.895-69.345-106.455l-.013-.159c-.071-.874-.133-1.75-.188-2.627-.017-.269-.03-.539-.045-.808a147.34 147.34 0 0 1-.108-2.109c-.02-.502-.035-1.005-.051-1.508-.016-.504-.035-1.007-.046-1.512a152.77 152.77 0 0 1-.035-3.107c0-1.198.017-2.403.047-3.612.004-.179.013-.357.018-.537.031-1.063.07-2.128.125-3.195.006-.132.015-.263.022-.395.06-1.119.131-2.239.217-3.359l.025-.316c.088-1.119.189-2.239.302-3.357 6.481-63.613 54.271-113.174 112.084-113.174zm-71.097 387.92c-2.271 2.27-4.429 3.572-5.923 3.572-.718 0-1.541-.312-2.449-.926-.064-.044-.134-.078-.2-.12a10.14 10.14 0 0 0-.931-.532 10.322 10.322 0 0 0-.95-.417 9.376 9.376 0 0 0-.565-.191c-.135-.042-.269-.085-.405-.121a9.99 9.99 0 0 0-.617-.138c-.123-.025-.245-.053-.369-.073a10.02 10.02 0 0 0-.755-.086c-.083-.007-.165-.02-.248-.024a9.87 9.87 0 0 0-2.085.099c-.037.006-.074.016-.111.022-.301.05-.601.111-.899.189-.02.005-.04.007-.06.013-.088.023-.171.058-.258.085a9.905 9.905 0 0 0-.665.217c-.141.053-.277.115-.415.174-.134.057-.27.105-.402.168-.047.023-.09.051-.137.075-.139.069-.272.146-.408.222a9.986 9.986 0 0 0-.513.301c-.116.074-.229.154-.341.233-.177.124-.35.25-.517.383a9.43 9.43 0 0 0-.284.239 10.22 10.22 0 0 0-.744.711 9.799 9.799 0 0 0-1.059 1.34c-.068.102-.137.203-.201.308-.12.197-.228.398-.333.602-.042.08-.091.154-.13.235-.94 1.936-1.972 2.558-4.246 2.558-1.236 0-2.693-.223-4.329-.661-1.308-.35-4.779-1.281-4.779-8.006 0-8.277 5.922-19.121 13.849-21.245a12.549 12.549 0 0 1 3.243-.409c7.778 0 17.253 6.401 20.275 13.699 1.669 4.027.411 6.054-1.039 7.504zm-27.655-40.114a90.802 90.802 0 0 1-23.498 3.098c-47.844 0-91.013-36.402-104.979-88.524-8.06-30.077-5.239-61.085 7.941-87.31 12.984-25.835 34.509-43.914 60.61-50.907a90.79 90.79 0 0 1 25.989-3.063c-.015.362-.021.722-.034 1.084-.025.738-.054 1.475-.07 2.216a162.347 162.347 0 0 0-.041 3.551c0 1.19.015 2.378.041 3.565.01.479.029.956.043 1.434.021.691.042 1.383.071 2.073.026.617.06 1.232.093 1.848.028.527.057 1.054.09 1.58a167.9 167.9 0 0 0 .468 5.776c.025.258.053.516.08.774.096.931.198 1.859.31 2.785l.021.167a161.65 161.65 0 0 0 3.506 19.125l.047.195c.225.908.458 1.812.699 2.713l.191.714a142.32 142.32 0 0 0 1.004 3.538c.176.593.353 1.186.535 1.775.206.67.42 1.337.635 2.004.112.344.221.69.335 1.034 5.503 16.673 13.695 32.232 24.308 45.849 14.082 18.068 31.759 31.907 51.396 40.583.287.127.575.25.863.375 1.373.594 2.754 1.164 4.145 1.707.596.233 1.191.468 1.79.691a124.287 124.287 0 0 0 6.985 2.367c1.038.318 2.081.622 3.128.912.281.078.557.169.838.245l-.051.063a50.73 50.73 0 0 0-2.211 2.829l-.004.005a48.68 48.68 0 0 0-4.448 7.363c-.08.162-.155.325-.233.487-.17.359-.343.718-.502 1.08a43.104 43.104 0 0 0-2.294 6.412 35.359 35.359 0 0 0-1.228 9.172c-.001.239-.009.478-.005.715.006.284.023.565.037.847.025.591.066 1.178.125 1.761l.023.215c.036.336.062.673.109 1.006-13.192 22.158-33.26 37.748-56.858 44.071zm110.333-39.341c-1.08 0-2.401-.253-4.024-2.129-.044-.051-.095-.095-.14-.145a10.036 10.036 0 0 0-.507-.524c-.081-.078-.165-.153-.248-.228a10.375 10.375 0 0 0-.805-.651c-.194-.14-.393-.271-.596-.397-.085-.053-.17-.108-.257-.158a9.967 9.967 0 0 0-.71-.371c-.064-.03-.125-.064-.189-.093a9.924 9.924 0 0 0-4.063-.883l-.045-.003c-.071 0-.141.01-.211.011a9.832 9.832 0 0 0-.763.042c-.147.015-.292.039-.437.06-.145.021-.289.032-.435.06-.05.01-.098.025-.148.036-.156.032-.309.072-.462.111-.19.048-.379.097-.564.156-.133.042-.264.091-.396.139-.201.073-.4.149-.594.234-.114.05-.226.104-.338.158a9.617 9.617 0 0 0-1.467.871c-.097.07-.194.14-.289.213-.178.138-.35.282-.517.432-.092.081-.184.16-.273.245a9.722 9.722 0 0 0-.478.496c-.061.066-.128.125-.187.194-1.622 1.873-2.943 2.126-4.021 2.126-1.253 0-3.453-.408-6.815-2.349-.857-.495-2.542-1.482-3.368-3.789-.013-.041-.021-.083-.034-.125-.447-1.354-.533-2.939-.314-4.646.016-.118.037-.242.056-.363.042-.276.09-.555.148-.837.048-.234.108-.478.168-.724.062-.252.121-.503.194-.758l.058-.199c1.37-4.579 4.551-9.58 8.799-13.28.192-.167.377-.342.555-.522 3.612-2.999 7.852-4.98 12.135-4.98 2.246 0 4.479.55 6.617 1.501.152.083.298.175.455.25 4.416 2.12 8.509 5.955 11.338 10.398l.074.115c.234.37.458.745.673 1.123l.126.228c.173.31.34.623.5.937l.131.256c.191.385.374.772.544 1.162l.034.08c.174.401.337.803.488 1.207l.019.05a24.058 24.058 0 0 1 .556 1.694l.004.014a21.17 21.17 0 0 1 .327 1.339c.451 2.165.642 5.008-.639 7.195-.014.024-.023.05-.037.075-.886 1.477-2.119 2.201-2.812 2.601-3.365 1.938-5.563 2.345-6.816 2.345zm76.97 72.243c-1.467.393-2.763.592-3.852.592-1.859 0-2.577-.429-3.337-1.994l-.014-.025a10.35 10.35 0 0 0-.501-.905c-.031-.05-.067-.095-.099-.144a10.222 10.222 0 0 0-.492-.699c-.06-.077-.126-.149-.189-.225a9.455 9.455 0 0 0-.487-.554c-.074-.077-.152-.149-.228-.224a9.606 9.606 0 0 0-.525-.482c-.085-.072-.174-.141-.262-.21a9.783 9.783 0 0 0-2.777-1.552c-.073-.026-.141-.06-.215-.085-.115-.039-.23-.064-.345-.098-.092-.028-.181-.064-.274-.09-.046-.013-.093-.016-.14-.028a10.219 10.219 0 0 0-1.107-.22c-.017-.002-.033-.007-.05-.009a9.934 9.934 0 0 0-1.226-.08c-.021 0-.043-.004-.064-.004-.039 0-.077.008-.116.009-.42.005-.837.035-1.249.093-.055.007-.11.012-.165.02-.443.069-.878.169-1.305.295-.075.022-.148.049-.223.073-.387.125-.767.271-1.135.441-.05.023-.101.042-.151.066-.401.193-.785.418-1.158.663-.034.023-.072.038-.107.061-.729.494-1.367.745-1.895.745-1.193 0-3.073-1.169-5.03-3.126-.841-.841-2.407-2.407-.818-6.243 2.722-6.569 11.249-12.332 18.248-12.332 1.001 0 1.957.12 2.841.357 7.09 1.9 12.387 11.662 12.388 19.121 0 5.737-2.762 6.477-3.941 6.793zm115.532-124.298c-12.926 48.24-52.854 81.93-97.098 81.93a83.885 83.885 0 0 1-21.705-2.862c-17.207-4.61-32.326-14.462-44.021-28.627.747-2.854 1.049-5.884.912-9.014-.011-.271-.041-.547-.059-.821-.035-.51-.069-1.021-.127-1.536-.044-.402-.11-.809-.169-1.214-.059-.4-.116-.801-.189-1.203-.079-.437-.175-.876-.271-1.316a39.096 39.096 0 0 0-.27-1.166c-.048-.19-.081-.378-.132-.569-.121-.45-.254-.9-.392-1.351l-.006-.023-.003-.009a41.125 41.125 0 0 0-.695-2.067c-.072-.201-.15-.399-.226-.599a42.625 42.625 0 0 0-.49-1.232c-.134-.325-.268-.65-.41-.973l-.101-.22a49.398 49.398 0 0 0-7.406-11.765c.393-.105.78-.23 1.172-.34.619-.173 1.236-.354 1.852-.537 24.354-7.206 46.47-22.026 63.783-43.101 15.548-18.927 26.252-41.763 31.363-66.335.048-.23.092-.463.14-.693.181-.888.357-1.776.523-2.669.082-.438.158-.878.236-1.317.123-.692.244-1.384.358-2.078.091-.552.176-1.106.262-1.66.09-.589.18-1.178.264-1.768a166.988 166.988 0 0 0 1.034-9.018c.043-.501.082-1.002.12-1.504.053-.688.107-1.377.151-2.069.033-.506.059-1.014.087-1.52.038-.688.078-1.375.108-2.065.022-.52.036-1.04.053-1.559.023-.683.05-1.365.064-2.05.011-.521.012-1.044.018-1.566.008-.66.022-1.317.022-1.979 0-.087-.003-.173-.003-.26l-.003-.869a84.128 84.128 0 0 1 7.906 1.715c24.114 6.461 44.004 23.172 56.007 47.054 12.195 24.275 14.803 52.978 7.341 80.825z"/></symbol><symbol id="bomb" viewbox="0 0 282 345.87" xmlns="http://www.w3.org/2000/svg"><defs><style>.aecls-1{fill:none}.aecls-2{clip-path:url(#aeclip-path)}</style><clippath id="aeclip-path"><path class="aecls-1" d="M0 .03h282v345.84H0z"/></clippath></defs><title>bomb</title><path d="M177.27 142.44a93.09 93.09 0 0 1 23.36 132 6 6 0 1 0 9.71 7.06 105.1 105.1 0 0 0-26.34-149 6 6 0 1 0-6.72 9.94zm-58.06-21.94a6 6 0 0 0 6 6 92.27 92.27 0 0 1 37.07 7.69 6 6 0 0 0 4.79-11 104.23 104.23 0 0 0-41.85-8.69 6 6 0 0 0-6 6zm0 0"/><g class="aecls-2"><path d="M257.52 41.63a6 6 0 0 0-6 6v13.8a27 27 0 0 1-54 0v-7.2a39 39 0 0 0-39-39h-.32a39 39 0 0 0-39 39v17.95h-24a6 6 0 0 0-6 6v21.6a125.21 125.21 0 1 0 72 0v-21.6a6 6 0 0 0-6-6h-24v-18a27 27 0 0 1 27-27h.32a27 27 0 0 1 27 27v7.2a39 39 0 0 0 78 0V47.63a6 6 0 0 0-6-6zm-19.11 178.08a113.21 113.21 0 1 1-113.2-113.21 113.34 113.34 0 0 1 113.2 113.21zm-89.2-122.89a125.3 125.3 0 0 0-48 0V84.18h48zm0 0"/><path d="M266 23.6l13.36-13.36a6 6 0 0 0-8.48-8.48l-13.36 13.35-13.35-13.35a6 6 0 1 0-8.49 8.48L249 23.6 235.68 37a6 6 0 0 0 8.49 8.48l13.35-13.35 13.36 13.35a6 6 0 1 0 8.49-8.48zm0 0"/></g></symbol><symbol viewbox="0 0 60 60" id="calendar" xmlns="http://www.w3.org/2000/svg"><path d="M57 4h-7V1a1 1 0 0 0-1-1h-7a1 1 0 0 0-1 1v3H19V1a1 1 0 0 0-1-1h-7a1 1 0 0 0-1 1v3H3a1 1 0 0 0-1 1v54a1 1 0 0 0 1 1h54a1 1 0 0 0 1-1V5a1 1 0 0 0-1-1zM43 2h5v6h-5V2zM12 2h5v6h-5V2zM4 6h6v3a1 1 0 0 0 1 1h7a1 1 0 0 0 1-1V6h22v3a1 1 0 0 0 1 1h7a1 1 0 0 0 1-1V6h6v9H4V6zm0 52V17h52v41H4z"/><path d="M38 23H11v29h38V23H38zm-7 2h7v7h-7v-7zm7 16h-7v-7h7v7zm-16-7h7v7h-7v-7zm0-9h7v7h-7v-7zm-9 0h7v7h-7v-7zm0 9h7v7h-7v-7zm7 16h-7v-7h7v7zm9 0h-7v-7h7v7zm9 0h-7v-7h7v7zm9 0h-7v-7h7v7zm0-9h-7v-7h7v7zm0-16v7h-7v-7h7z"/></symbol><symbol viewbox="0 0 60 60" id="clock" xmlns="http://www.w3.org/2000/svg"><circle cx="30" cy="29.879" r="2"/><path d="M30 0C13.458 0 0 13.458 0 30s13.458 30 30 30 30-13.458 30-30S46.542 0 30 0zm-1 7.879a1 1 0 1 1 2 0v1a1 1 0 1 1-2 0v-1zm-20 23H8a1 1 0 1 1 0-2h1a1 1 0 1 1 0 2zm6.858 14.557l-.707.707a.997.997 0 0 1-1.414 0 .999.999 0 0 1 0-1.414l.707-.707a.999.999 0 1 1 1.414 1.414zm0-29.7a.997.997 0 0 1-1.414 0l-.707-.707a.999.999 0 1 1 1.414-1.414l.707.707a.999.999 0 0 1 0 1.414zM31 51.879a1 1 0 1 1-2 0v-1a1 1 0 1 1 2 0v1zm-1-18c-1.858 0-3.411-1.28-3.858-3H19a1 1 0 1 1 0-2h7.142A3.995 3.995 0 0 1 29 26.021V15.879a1 1 0 1 1 2 0v10.142c1.72.447 3 1.999 3 3.858 0 2.206-1.794 4-4 4zm16.263 12.264a.997.997 0 0 1-1.414 0l-.707-.707a.999.999 0 1 1 1.414-1.414l.707.707a.999.999 0 0 1 0 1.414zm0-31.114l-.707.707a.997.997 0 0 1-1.414 0 .999.999 0 0 1 0-1.414l.707-.707a.999.999 0 1 1 1.414 1.414zM52 30.879h-1a1 1 0 1 1 0-2h1a1 1 0 1 1 0 2z"/></symbol><symbol viewbox="0 0 97.16 97.16" id="clock-circular-outline" xmlns="http://www.w3.org/2000/svg"><path d="M48.58 0C21.793 0 0 21.793 0 48.58s21.793 48.58 48.58 48.58 48.58-21.793 48.58-48.58S75.367 0 48.58 0zm0 86.823c-21.087 0-38.244-17.155-38.244-38.243S27.493 10.337 48.58 10.337 86.824 27.492 86.824 48.58 69.667 86.823 48.58 86.823z"/><path d="M73.898 47.08H52.066V20.83a4 4 0 0 0-8 0v30.25a4 4 0 0 0 4 4h25.832a4 4 0 0 0 0-8z"/></symbol><symbol viewbox="0 0 512 512" id="close" xmlns="http://www.w3.org/2000/svg"><path d="M505.943 6.058c-8.077-8.077-21.172-8.077-29.249 0L6.058 476.693c-8.077 8.077-8.077 21.172 0 29.249A20.612 20.612 0 0 0 20.683 512a20.614 20.614 0 0 0 14.625-6.059L505.943 35.306c8.076-8.076 8.076-21.171 0-29.248z"/><path d="M505.942 476.694L35.306 6.059c-8.076-8.077-21.172-8.077-29.248 0-8.077 8.076-8.077 21.171 0 29.248l470.636 470.636a20.616 20.616 0 0 0 14.625 6.058 20.615 20.615 0 0 0 14.624-6.057c8.075-8.078 8.075-21.173-.001-29.25z"/></symbol><symbol viewbox="0 0 375.61 280.83" id="dice" xmlns="http://www.w3.org/2000/svg"><title>dice</title><path d="M135.57 114.33H30.93A31 31 0 0 0 0 145.26V249.9a31 31 0 0 0 30.93 30.93h104.64a31 31 0 0 0 30.93-30.93V145.26a31 31 0 0 0-30.93-30.93zM151.5 249.9a16 16 0 0 1-15.93 15.93H30.93A16 16 0 0 1 15 249.9V145.26a16 16 0 0 1 15.93-15.93h104.64a16 16 0 0 1 15.93 15.93V249.9zM373 114.06L330.52 18.4a30.93 30.93 0 0 0-40.81-15.73L194.06 45.1a30.93 30.93 0 0 0-15.73 40.81l42.43 95.65a30.88 30.88 0 0 0 40.81 15.73l95.65-42.43a31 31 0 0 0 15.78-40.8zm-13.41 18.27a15.83 15.83 0 0 1-8.4 8.83l-95.65 42.43a15.93 15.93 0 0 1-21-8.1L192 79.84a15.93 15.93 0 0 1 8.1-21l95.65-42.43a15.93 15.93 0 0 1 21 8.1l42.43 95.65a15.82 15.82 0 0 1 .36 12.17z"/><path d="M280.92 91.49a10 10 0 1 0 4.52 10.45 10.08 10.08 0 0 0-4.52-10.45zM44.57 167.77a10 10 0 1 0-9.46-6.77 10.12 10.12 0 0 0 9.46 6.77zm0 39.81a10 10 0 1 0-9.46-6.79 10.11 10.11 0 0 0 9.46 6.79zm5.28 21.32a10 10 0 1 0 4.53 10.45 10.1 10.1 0 0 0-4.53-10.45zm72.07-61.13a10 10 0 1 0-9.4-6.61 10.1 10.1 0 0 0 9.4 6.61zm5.28 21.32a10 10 0 1 0 4.56 10.27 10.1 10.1 0 0 0-4.56-10.27zm0 39.81a10 10 0 1 0 4.53 10.45 10.1 10.1 0 0 0-4.53-10.45z"/></symbol><symbol viewbox="0 0 17.28 33.67" id="fb" xmlns="http://www.w3.org/2000/svg"><path d="M16.59 16.8h-5.13v16.87H3.69V16.8H0v-5.93h3.69V7c0-2.74 1.45-7 7.84-7h5.75v5.78h-4.17a1.51 1.51 0 0 0-1.65 1.61v3.49h5.81zm0 0"/></symbol><symbol viewbox="0 0 404.867 404.867" id="helm" xmlns="http://www.w3.org/2000/svg"><path d="M227.878 191.893c-.001-.001-.001-.001 0 0-5.812-14.029-21.949-20.713-35.98-14.903-6.796 2.815-12.088 8.107-14.903 14.903-2.814 6.795-2.814 14.281 0 21.075 2.815 6.796 8.107 12.089 14.903 14.904 3.398 1.408 6.968 2.111 10.538 2.111s7.141-.704 10.538-2.111c14.028-5.81 20.714-21.95 14.904-35.979zm-20.644 22.12a12.448 12.448 0 0 1-9.596 0 12.453 12.453 0 0 1-6.785-6.786 12.459 12.459 0 0 1 0-9.595 12.45 12.45 0 0 1 6.785-6.785 12.468 12.468 0 0 1 4.781-.955c4.923 0 9.603 2.917 11.601 7.74 2.644 6.388-.4 13.736-6.786 16.381z"/><path d="M151.013 78.285c-33.16 13.736-58.987 39.563-72.723 72.723-13.735 33.161-13.735 69.686.001 102.846 13.735 33.16 39.562 58.987 72.722 72.723 16.583 6.869 34 10.302 51.424 10.302 17.419 0 34.844-3.435 51.422-10.301 68.454-28.354 101.077-107.114 72.723-175.568-28.355-68.455-107.113-101.08-175.569-72.725zm167.648 151.178l-62.719-25.979c.014-.704.014-1.407 0-2.111l62.764-25.997c4.236 18.161 4.038 36.639-.045 54.087zm-151.797-12.298c-8.124-19.615 1.224-42.182 20.838-50.307a38.285 38.285 0 0 1 14.685-2.932c15.115 0 29.487 8.958 35.623 23.769 3.936 9.501 3.936 19.967-.001 29.469-3.936 9.502-11.336 16.902-20.838 20.838-19.611 8.126-42.181-1.221-50.307-20.837zm-74.715 30.948a123.577 123.577 0 0 1-1.638-4.193l60.96-25.25a53.78 53.78 0 0 0 1.535 4.236 54.754 54.754 0 0 0 1.905 4.08l-60.956 25.249a121.421 121.421 0 0 1-1.806-4.122zm-5.999-72.746l62.807 26.016c-.015.696-.012 1.393.001 2.092L86.149 229.49a118.036 118.036 0 0 1 .001-54.123zm7.807-22.744l60.979 25.259a53.863 53.863 0 0 0-3.444 8.315l-60.979-25.259a122.565 122.565 0 0 1 1.636-4.19 121.61 121.61 0 0 1 1.808-4.125zm218.767 4.125a119.723 119.723 0 0 1 1.635 4.192l-60.955 25.248a54.188 54.188 0 0 0-1.538-4.233 53.947 53.947 0 0 0-1.91-4.08l60.965-25.253a120.09 120.09 0 0 1 1.803 4.126zm-94.055-5.262l25.235-60.922a120.02 120.02 0 0 1 8.317 3.441l-25.236 60.925a54.014 54.014 0 0 0-8.316-3.444zm33.198 71.42a54.264 54.264 0 0 0 1.539-4.236l60.904 25.227a120.496 120.496 0 0 1-3.444 8.315l-60.904-25.227a54.919 54.919 0 0 0 1.905-4.079zm51.907-83.559l-62.784 26.006a52.708 52.708 0 0 0-1.476-1.477l25.985-62.733c15.223 9.45 28.428 22.369 38.275 38.204zm-74.305-53.13l-25.985 62.734a51.96 51.96 0 0 0-2.089.001l-26.01-62.793a118.382 118.382 0 0 1 26.895-3.104c9.212 0 18.331 1.089 27.189 3.162zm-68.519 4.289l25.25 60.959a53.99 53.99 0 0 0-4.239 1.535 53.486 53.486 0 0 0-4.077 1.909l-25.25-60.96c1.36-.623 2.73-1.23 4.12-1.806a121.183 121.183 0 0 1 4.196-1.637zm-21.604 10.561l26.016 62.808c-.502.484-.997.975-1.479 1.477l-62.808-26.016a118.039 118.039 0 0 1 38.271-38.269zm-38.272 164.455l62.781-26.005c.489.509.987 1.007 1.496 1.496l-26.005 62.78a118.019 118.019 0 0 1-38.272-38.271zm51.558 45.389l25.249-60.956a54.762 54.762 0 0 0 4.08 1.906 54.264 54.264 0 0 0 4.236 1.539l-25.249 60.956a122.81 122.81 0 0 1-4.194-1.638 121.44 121.44 0 0 1-4.122-1.807zm22.745 7.807l26.005-62.781c.352.007.703.026 1.054.026.354 0 .707-.019 1.06-.026l26.004 62.78a118.05 118.05 0 0 1-54.123.001zm68.552-4.364l-25.249-60.956a54.695 54.695 0 0 0 4.231-1.537 54.287 54.287 0 0 0 4.084-1.908l25.249 60.955c-1.36.624-2.731 1.233-4.125 1.81-1.39.576-2.788 1.115-4.19 1.636zm21.595-10.579l-25.998-62.765a52.615 52.615 0 0 0 1.494-1.494l62.718 25.979c-9.451 15.226-22.376 28.432-38.214 38.28z"/><path d="M392.829 260.184l-27.612-11.437c8.707-30.376 8.707-62.26-.001-92.636l27.614-11.438c9.934-4.115 14.668-15.544 10.553-25.478a19.367 19.367 0 0 0-10.553-10.553 19.367 19.367 0 0 0-14.925 0l-27.614 11.438c-15.322-27.636-37.867-50.182-65.503-65.504l11.437-27.613a19.373 19.373 0 0 0 .001-14.924 19.368 19.368 0 0 0-10.554-10.554c-9.937-4.115-21.364.62-25.478 10.553l-11.438 27.613c-30.376-8.708-62.261-8.708-92.637-.001l-11.437-27.612c-4.115-9.934-15.546-14.666-25.479-10.552-9.934 4.115-14.668 15.544-10.553 25.478l11.442 27.624c-28.22 15.691-50.501 38.66-65.431 65.525l-27.69-11.47a19.371 19.371 0 0 0-14.925 0c-4.813 1.993-8.56 5.741-10.553 10.553s-1.994 10.112-.001 14.924a19.368 19.368 0 0 0 10.554 10.554l27.69 11.469c-8.441 29.553-8.929 61.551-.069 92.601l-27.621 11.441C2.112 264.3-2.622 275.729 1.493 285.663c3.11 7.501 10.387 12.037 18.043 12.037 2.481 0 5.005-.477 7.437-1.484L54.58 284.78c15.322 27.638 37.869 50.185 65.508 65.507l-11.436 27.607c-4.115 9.934.62 21.363 10.554 25.478a19.401 19.401 0 0 0 7.437 1.484c7.655 0 14.934-4.536 18.041-12.038l11.435-27.608c15.188 4.354 30.752 6.542 46.318 6.542 15.568 0 31.133-2.189 46.322-6.543l11.437 27.609a19.37 19.37 0 0 0 10.553 10.553 19.466 19.466 0 0 0 7.462 1.495c2.528 0 5.057-.498 7.463-1.495a19.368 19.368 0 0 0 10.554-10.554 19.378 19.378 0 0 0-.001-14.924l-11.436-27.609c27.636-15.322 50.183-37.87 65.504-65.506l27.612 11.437a19.405 19.405 0 0 0 7.437 1.484c7.655 0 14.935-4.537 18.041-12.038 4.112-9.932-.622-21.361-10.556-25.477zM383.645 122.5a4.505 4.505 0 0 1 5.88 2.436 4.506 4.506 0 0 1-2.436 5.879l-26.639 11.034a173.025 173.025 0 0 0-1.665-4.18 172.593 172.593 0 0 0-1.779-4.135l26.639-11.034zM274.052 17.778c.46-1.111 1.325-1.975 2.436-2.435s2.332-.46 3.444 0a4.474 4.474 0 0 1 2.436 2.435 4.47 4.47 0 0 1 0 3.444l-11.034 26.639a176.841 176.841 0 0 0-4.136-1.78 173.025 173.025 0 0 0-4.18-1.665l11.034-26.638zm-151.543 3.444c-.46-1.11-.459-2.333.001-3.444s1.325-1.976 2.436-2.436a4.505 4.505 0 0 1 5.88 2.436l11.033 26.637a170.92 170.92 0 0 0-4.184 1.667 171.158 171.158 0 0 0-4.132 1.777l-11.034-26.637zM17.788 130.815a4.474 4.474 0 0 1-2.436-2.435 4.47 4.47 0 0 1 0-3.444 4.505 4.505 0 0 1 5.88-2.436l26.71 11.064a169.678 169.678 0 0 0-3.444 8.315l-26.71-11.064zm3.445 151.542a4.506 4.506 0 0 1-5.88-2.435c-.46-1.11-.46-2.334 0-3.444s1.325-1.975 2.436-2.435l26.633-11.031c.536 1.397 1.09 2.791 1.666 4.181.575 1.388 1.17 2.765 1.778 4.133l-26.633 11.031zm109.592 104.721a4.505 4.505 0 0 1-5.881 2.436 4.506 4.506 0 0 1-2.436-5.879l11.032-26.633c1.368.609 2.744 1.203 4.133 1.778 1.389.576 2.784 1.129 4.183 1.666l-11.031 26.632zm151.542-3.443a4.506 4.506 0 0 1-2.436 5.879 4.507 4.507 0 0 1-5.88-2.435l-11.033-26.635c1.397-.537 2.791-1.09 4.178-1.665 1.39-.576 2.768-1.171 4.137-1.78l11.034 26.636zm-20.91-38.714c-38.06 15.766-79.981 15.766-118.043 0-38.061-15.765-67.704-45.408-83.47-83.469-32.544-78.57 4.9-168.968 83.47-201.512 19.03-7.883 39.026-11.824 59.021-11.824 19.996 0 39.991 3.941 59.021 11.824 38.061 15.765 67.704 45.408 83.47 83.469 15.765 38.061 15.765 79.983-.001 118.043-15.764 38.061-45.407 67.704-83.468 83.469zm128.068-64.999a4.503 4.503 0 0 1-5.88 2.435l-26.638-11.034a170.53 170.53 0 0 0 1.777-4.131 175.03 175.03 0 0 0 1.667-4.184l26.638 11.034a4.507 4.507 0 0 1 2.436 5.88z"/></symbol><symbol viewbox="0 0 33.79 33.79" id="inst" xmlns="http://www.w3.org/2000/svg"><path d="M27.6 0H6.2A6.2 6.2 0 0 0 0 6.2v21.4a6.2 6.2 0 0 0 6.2 6.2h21.4a6.21 6.21 0 0 0 6.2-6.2V6.2A6.2 6.2 0 0 0 27.6 0zM16.89 28A11.12 11.12 0 1 1 28 16.9 11.14 11.14 0 0 1 16.89 28zM28.38 8.07A2.63 2.63 0 1 1 31 5.44a2.63 2.63 0 0 1-2.63 2.63zm0 0"/><path d="M16.89 10.47a6.42 6.42 0 1 0 6.43 6.42 6.43 6.43 0 0 0-6.43-6.42zm0 0"/></symbol><symbol viewbox="0 0 512 512" id="menu" xmlns="http://www.w3.org/2000/svg"><path d="M491.318 235.318H20.682C9.26 235.318 0 244.577 0 256s9.26 20.682 20.682 20.682h470.636c11.423 0 20.682-9.259 20.682-20.682 0-11.422-9.259-20.682-20.682-20.682zm0-156.879H20.682C9.26 78.439 0 87.699 0 99.121c0 11.422 9.26 20.682 20.682 20.682h470.636c11.423 0 20.682-9.26 20.682-20.682 0-11.422-9.259-20.682-20.682-20.682zm0 313.758H20.682C9.26 392.197 0 401.456 0 412.879s9.26 20.682 20.682 20.682h470.636c11.423 0 20.682-9.259 20.682-20.682s-9.259-20.682-20.682-20.682z"/></symbol><symbol viewbox="0 0 409.9 380.9" id="moon" xmlns="http://www.w3.org/2000/svg"><defs><clippath id="aoa"><path fill="none" d="M0 0h409.9v380.9H0z"/></clippath></defs><path d="M257.9 352.1c-66.7-25.6-111.4-90.7-111.4-162.1S191.3 53.4 257.9 27.9a8 8 0 0 0 5.2-7.6 8.15 8.15 0 0 0-5.2-7.6A190.37 190.37 0 0 0 55.6 55.8a189.85 189.85 0 0 0 134.3 324.1 189.7 189.7 0 0 0 68-12.5 8 8 0 0 0 5.2-7.6 8.28 8.28 0 0 0-5.2-7.7zm-68 11.5c-95.7 0-173.6-77.9-173.6-173.6S94.2 16.4 189.9 16.4a171.35 171.35 0 0 1 42.3 5.2 190 190 0 0 0 0 336.8 171.35 171.35 0 0 1-42.3 5.2z"/><g clip-path="url(#aoa)"><path d="M332.1 121.2a8.26 8.26 0 0 0-6.6-5.6l-27.6-4-12.3-25a8.1 8.1 0 0 0-7.3-4.5 8.28 8.28 0 0 0-7.3 4.5l-12.3 25-27.6 4a8.1 8.1 0 0 0-6.6 5.6 8 8 0 0 0 2.1 8.4l20 19.5-4.7 27.5a8.18 8.18 0 0 0 3.2 8 8.1 8.1 0 0 0 8.6.6l24.7-13 24.7 13a8.49 8.49 0 0 0 3.8.9 7.71 7.71 0 0 0 4.8-1.6 8 8 0 0 0 3.2-8l-4.7-27.5 20-19.5a8.55 8.55 0 0 0 1.9-8.3zm-36.5 19.2a8.09 8.09 0 0 0-2.3 7.2l2.6 15.4-13.8-7.3a8.47 8.47 0 0 0-7.6 0l-13.8 7.3 2.6-15.4a8 8 0 0 0-2.3-7.2l-11.2-10.9 15.5-2.3a8 8 0 0 0 6.1-4.5l6.9-14 6.9 14a8.31 8.31 0 0 0 6.1 4.5l15.5 2.3zm113.6 92.7a8.26 8.26 0 0 0-6.6-5.6l-27.6-4-12.3-25a8.09 8.09 0 0 0-14.6 0l-12.3 25-27.6 4a8.1 8.1 0 0 0-6.6 5.6 8 8 0 0 0 2.1 8.4l20 19.5-4.7 27.5a8.18 8.18 0 0 0 3.2 8 8.1 8.1 0 0 0 8.6.6l24.7-13 24.7 13a8.49 8.49 0 0 0 3.8.9 7.71 7.71 0 0 0 4.8-1.6 8 8 0 0 0 3.2-8l-4.7-27.5 20-19.5a8.15 8.15 0 0 0 1.9-8.3zm-36.5 19.1a8.09 8.09 0 0 0-2.3 7.2l2.6 15.4-13.8-7.3a8.47 8.47 0 0 0-7.6 0l-13.8 7.3 2.6-15.4a8.09 8.09 0 0 0-2.3-7.2l-11.2-10.9 15.5-2.3a8 8 0 0 0 6.1-4.5l6.9-14 6.9 14a8.31 8.31 0 0 0 6.1 4.5l15.5 2.3z"/></g></symbol><symbol viewbox="0 0 24 5" id="nav-arrow-left" xmlns="http://www.w3.org/2000/svg"><path d="M4 5L0 2.51 4 0zm20-3.07v1L4 3V2z"/></symbol><symbol viewbox="0 0 24 5" id="nav-arrow-right" xmlns="http://www.w3.org/2000/svg"><path d="M20 0l4 2.47L20 5zM0 3.13v-1L20 2v1z"/></symbol><symbol viewbox="0 0 477.175 477.175" id="next" xmlns="http://www.w3.org/2000/svg"><path d="M360.731 229.075l-225.1-225.1c-5.3-5.3-13.8-5.3-19.1 0s-5.3 13.8 0 19.1l215.5 215.5-215.5 215.5c-5.3 5.3-5.3 13.8 0 19.1 2.6 2.6 6.1 4 9.5 4 3.4 0 6.9-1.3 9.5-4l225.1-225.1c5.3-5.2 5.3-13.8.1-19z"/></symbol><symbol viewbox="0 0 64.58 73.68" id="play" xmlns="http://www.w3.org/2000/svg"><title>play</title><path d="M63.1 34.18L4.5.38a3.06 3.06 0 0 0-4.1 1.1A2.82 2.82 0 0 0 0 3v67.7a3 3 0 0 0 3 3 2.82 2.82 0 0 0 1.5-.4l58.6-33.8a3.06 3.06 0 0 0 1.1-4.1 2.58 2.58 0 0 0-1.1-1.22z"/></symbol><symbol viewbox="0 0 512 512" id="puzzle" xmlns="http://www.w3.org/2000/svg"><path d="M480.178.001H31.822C14.275.001 0 14.276 0 31.823v448.34c0 17.547 14.275 31.822 31.822 31.822h223.875c.099.003.196.015.295.015h224.171c17.547 0 31.822-14.275 31.822-31.822V256.289c.003-.099.015-.196.015-.295V31.823C512 14.276 497.725.001 480.178.001zM25.458 31.823a6.371 6.371 0 0 1 6.364-6.364h211.456v62.569c-9.438-6.582-20.5-10.048-32.157-10.048-15.403 0-29.783 6.097-40.493 17.167-10.706 11.068-16.32 25.654-15.807 41.073.989 29.786 25.06 53.727 54.799 54.501 12.049.316 23.874-3.231 33.657-10.029v62.571h-80.611c-7.03 0-12.729 5.7-12.729 12.729v.514c0 9.137 3.087 17.951 8.927 25.487 4.38 5.652 6.595 12.472 6.406 19.721-.417 16.019-13.83 29.485-29.897 30.02-8.462.257-16.461-2.794-22.526-8.662-6.068-5.869-9.41-13.753-9.41-22.196 0-6.888 2.192-13.382 6.339-18.78 5.891-7.669 9.006-16.616 9.006-25.87v-.235c0-7.029-5.699-12.729-12.729-12.729H25.458V31.823zM255.99 393.202c-7.03 0-12.729 5.699-12.729 12.729v80.596H31.822a6.37 6.37 0 0 1-6.364-6.363V268.721h62.569c-6.582 9.438-10.047 20.5-10.047 32.157 0 15.404 6.097 29.784 17.169 40.493 10.603 10.257 24.435 15.84 39.135 15.838.644 0 1.291-.01 1.936-.032 29.786-.989 53.727-25.06 54.501-54.8.313-12.032-3.233-23.873-10.029-33.656h62.572v80.596c0 7.03 5.699 12.729 12.729 12.729h.514c9.139 0 17.953-3.088 25.488-8.929 5.65-4.377 12.47-6.611 19.721-6.404 16.019.416 29.485 13.827 30.018 29.896.281 8.462-2.795 16.463-8.662 22.527-5.871 6.069-13.752 9.41-22.195 9.41-6.888 0-13.382-2.192-18.78-6.339-7.672-5.892-16.617-9.006-25.87-9.006h-.237zm224.173 93.34H268.72v-62.585c9.438 6.583 20.5 10.048 32.157 10.048 15.403 0 29.783-6.097 40.491-17.167 10.706-11.066 16.32-25.654 15.808-41.073-.989-29.787-25.06-53.727-54.799-54.501-12.038-.311-23.874 3.232-33.659 10.029v-62.557h80.596c7.03 0 12.729-5.7 12.729-12.729v-.514c0-9.138-3.087-17.951-8.928-25.487-4.379-5.652-6.595-12.472-6.406-19.722.416-16.018 13.829-29.484 29.897-30.018 8.465-.256 16.462 2.794 22.527 8.662 6.069 5.87 9.41 13.753 9.41 22.196 0 6.888-2.192 13.382-6.338 18.78-5.892 7.67-9.007 16.616-9.007 25.87v.235c0 7.029 5.699 12.729 12.729 12.729h80.596v211.439h.003a6.37 6.37 0 0 1-6.363 6.365zm6.38-243.263h-62.585c6.581-9.438 10.047-20.5 10.047-32.157 0-15.403-6.097-29.784-17.169-40.494-11.068-10.705-25.666-16.33-41.072-15.807-29.788.989-53.727 25.06-54.501 54.8-.313 12.031 3.233 23.873 10.029 33.656h-62.557v-80.611c0-7.029-5.699-12.729-12.729-12.729h-.514c-9.138 0-17.953 3.088-25.488 8.929-5.652 4.38-12.482 6.595-19.721 6.404-16.019-.416-29.485-13.827-30.018-29.896-.281-8.462 2.794-16.463 8.661-22.527 5.87-6.068 13.752-9.41 22.195-9.41 6.888 0 13.382 2.192 18.78 6.339 7.67 5.891 16.616 9.004 25.87 9.004h.235c7.03 0 12.729-5.699 12.729-12.729V25.458h211.442a6.371 6.371 0 0 1 6.364 6.364v211.457z"/></symbol><symbol viewbox="0 0 433.12 462.05" id="ship" xmlns="http://www.w3.org/2000/svg"><title>ship</title><path d="M164.36 345.13a22.27 22.27 0 1 0 22.27 22.27 22.29 22.29 0 0 0-22.27-22.27zm0 29.54a7.27 7.27 0 1 1 7.27-7.27 7.28 7.28 0 0 1-7.27 7.26zM216 345.13a22.27 22.27 0 1 0 22.27 22.27A22.29 22.29 0 0 0 216 345.13zm0 29.54a7.27 7.27 0 1 1 7.27-7.27 7.28 7.28 0 0 1-7.27 7.26zm51.74-29.54A22.27 22.27 0 1 0 290 367.39a22.29 22.29 0 0 0-22.26-22.26zm0 29.54a7.27 7.27 0 1 1 7.27-7.27 7.28 7.28 0 0 1-7.27 7.26z"/><path d="M432.92 280.95a7.5 7.5 0 0 0-9-5.61l-126.25 29.34a7.5 7.5 0 0 0-5.8 7.3 11 11 0 0 1-11 11h-57.32V207.92a34.64 34.64 0 0 0 52.68-2.15l5.66-7.22 5.67 7.22a34.65 34.65 0 0 0 54.52 0l9.32-11.87h10.43a7.5 7.5 0 0 0 0-15H223.55v-37a34.64 34.64 0 0 0 52.68-2.15l9.31-11.87h11.68a7.5 7.5 0 0 0 0-15h-73.67v-30h16a7.5 7.5 0 0 0 7.4-6.28l5.19-31.47a7.5 7.5 0 0 0-7.4-8.72h-21.19V7.5a7.5 7.5 0 0 0-15 0v28.94h-21.17a7.5 7.5 0 0 0-7.4 8.72l5.19 31.47a7.5 7.5 0 0 0 7.4 6.28h16v30h-73.69a7.5 7.5 0 0 0 0 15h11.66l9.31 11.86a34.64 34.64 0 0 0 52.7 2.13v37H70.28a7.5 7.5 0 1 0 0 15h10.43L90 205.76a34.65 34.65 0 0 0 54.53 0l5.65-7.21 5.66 7.21a34.64 34.64 0 0 0 52.7 2.13V323h-25.7a13.62 13.62 0 0 1-13.61-13.61V261a7.5 7.5 0 0 0-7.5-7.5H7.5a7.5 7.5 0 0 0 0 15h10.43v15.73H7.5a7.5 7.5 0 0 0 0 15h10.43v31.25a7.5 7.5 0 0 0 7.5 7.5h26.76a153.31 153.31 0 0 0 8 39.79h-8.03a7.5 7.5 0 0 0-7.5 7.5v53.44a7.5 7.5 0 0 0 7.5 7.5h37.41a7.5 7.5 0 0 0 6.82-4.38l4.32-9.45C125.55 450.29 162.14 462 215.33 462c90.31 0 164.13-72 167.29-161.72l44.69-10.39a7.5 7.5 0 0 0 5.61-8.94zM196.23 51.44h39.65l-2.72 16.47h-34.22zM249 204a19.54 19.54 0 0 1-15.46-7.52l-2-2.61h35l-2 2.61A19.54 19.54 0 0 1 249 204zm81.31-7.52a19.65 19.65 0 0 1-30.92 0l-2-2.61h35zm-65.85-66a19.65 19.65 0 0 1-30.92 0l-2-2.61h35zM183.11 138a19.54 19.54 0 0 1-15.46-7.52l-2-2.61h35l-2 2.61a19.54 19.54 0 0 1-15.54 7.52zm-65.84 66a19.53 19.53 0 0 1-15.46-7.52l-2-2.6h35l-2 2.6a19.53 19.53 0 0 1-15.54 7.52zm65.84 0a19.54 19.54 0 0 1-15.46-7.52l-2-2.61h35l-2 2.61a19.53 19.53 0 0 1-15.54 7.52zM32.93 268.54h121.3v15.73H32.93zm51.82 162.71H59.66v-38.44h7a110 110 0 0 0 22.11 29.7zm130.57 15.8c-92.57 0-142.35-36.68-148.1-109H139a7.5 7.5 0 0 0 0-15H32.93v-23.78h121.3v10.14A28.64 28.64 0 0 0 182.84 338h98a26.08 26.08 0 0 0 25.31-19.91l61.31-14.25c-4.93 79.81-71.28 143.21-152.13 143.21z"/></symbol><symbol viewbox="0 0 512.009 512.009" id="treasure-map" xmlns="http://www.w3.org/2000/svg"><path d="M490.672 245.341c0-94.062 21-231.667 21.208-233.042a10.667 10.667 0 0 0-3.656-9.76 10.689 10.689 0 0 0-10.24-1.99c-.635.208-64.729 20.792-209.979 20.792C162.265 21.341 13.661.331 12.182.112c-3.771-.542-7.344.906-9.708 3.74A10.643 10.643 0 0 0 .567 14.081c.208.615 20.771 62.563 20.771 145.927 0 4.938 3.396 9.229 8.198 10.375 20.844 4.958 55.802 19.906 55.802 64.292 0 40.417-17.25 60.76-54.271 64.042a10.664 10.664 0 0 0-9.729 10.625c0 114.24-20.719 188.344-20.927 189.073a10.67 10.67 0 0 0 2.365 10.094c2.479 2.719 6.198 4 9.802 3.323 1.167-.208 117.115-21.156 179.427-21.156 94.365 0 306.146 21.063 308.271 21.281a10.632 10.632 0 0 0 8.844-3.323 10.651 10.651 0 0 0 2.74-9.042c-.209-1.271-21.188-128.584-21.188-254.251zm-298.667 224c-50.677 0-132.458 12.844-167.083 18.688 6.063-27.208 16.927-87.063 17.708-169.313 41.958-7.198 64.042-36.073 64.042-84.042 0-39.885-23.771-70.333-64.063-82.823C41.734 93.529 31.64 46.768 25.484 23.414c42.406 5.458 159.875 19.26 262.521 19.26 108.927 0 172.813-11.167 200.458-17.552-5.563 39.521-19.125 143.75-19.125 220.219 0 103.188 13.948 207.448 19.365 244.052-48.792-4.677-215.375-20.052-296.698-20.052z"/><path d="M384.005 362.675c-23.531 0-42.667 19.135-42.667 42.667s19.135 42.667 42.667 42.667 42.667-19.135 42.667-42.667-19.136-42.667-42.667-42.667zm0 64c-11.76 0-21.333-9.573-21.333-21.333s9.573-21.333 21.333-21.333 21.333 9.573 21.333 21.333-9.573 21.333-21.333 21.333zM144.89 352.008c0-5.896-4.771-10.667-10.667-10.667s-10.667 4.771-10.667 10.667c0 7.927 1.552 16.406 4.479 24.5a10.671 10.671 0 0 0 13.656 6.407c5.542-2.01 8.406-8.125 6.406-13.656-2.103-5.803-3.207-11.772-3.207-17.251zm62.563-220.479c2.292 0 4.604-.74 6.563-2.26 8.542-6.677 19.448-11.948 32.396-15.667 5.667-1.615 8.938-7.531 7.313-13.188-1.615-5.656-7.542-8.969-13.188-7.313-15.604 4.469-28.948 10.979-39.667 19.354-4.635 3.625-5.458 10.333-1.833 14.979a10.65 10.65 0 0 0 8.416 4.095zm-9.229 273.812c-11.313 0-21.448-3.125-30.125-9.292-4.813-3.427-11.448-2.26-14.875 2.521-3.406 4.802-2.281 11.458 2.521 14.875 12.354 8.781 26.646 13.229 44.188 13.229 5.896 0 9.813-4.771 9.813-10.667-.002-5.895-5.627-10.666-11.522-10.666zM176.89 202.789h.01c5.885 0 10.656-4.896 10.656-10.781 0-13.406 2.01-25.292 5.979-35.333 2.156-5.479-.531-11.677-6.01-13.833-5.469-2.167-11.677.51-13.844 6-4.854 12.323-7.365 26.552-7.396 43.417h-.052c.011 5.884 4.772 10.53 10.657 10.53zm41.896 45.521c-11.635-5.615-19.354-12.625-24.292-22.042-2.729-5.208-9.167-7.271-14.396-4.5-5.219 2.729-7.229 9.177-4.5 14.396 7.073 13.5 18.167 23.76 33.917 31.354a10.636 10.636 0 0 0 4.625 1.063c3.969 0 7.781-2.219 9.615-6.031 2.562-5.302.333-11.677-4.969-14.24zm65.167-140.927c11.771-.813 25.49-1.656 36.906 1.094.833.208 1.677.302 2.51.302 4.813 0 9.177-3.281 10.354-8.167 1.385-5.719-2.135-11.49-7.865-12.865-13.667-3.313-29.604-2.615-43.427-1.635-5.875.417-10.292 5.51-9.875 11.396.407 5.865 5.397 10.396 11.397 9.875zm12.448 188.073c3.885-4.427 3.438-11.167-.99-15.052-11.615-10.177-26.719-15.396-39.969-19.49-5.615-1.74-11.594 1.406-13.333 7.042-1.74 5.625 1.406 11.594 7.042 13.333 11.146 3.448 23.74 7.74 32.198 15.156a10.64 10.64 0 0 0 7.031 2.646c2.958 0 5.917-1.229 8.021-3.635zm7.427 17.802c-5.875.448-10.271 5.573-9.823 11.448.146 1.917.219 3.896.219 5.969 0 11.042-1.49 20.948-4.438 29.448-1.938 5.573 1.01 11.646 6.573 13.573 1.167.406 2.344.594 3.5.594 4.417 0 8.552-2.76 10.073-7.167 3.729-10.76 5.625-23.021 5.625-36.448 0-2.635-.094-5.156-.281-7.594-.448-5.865-5.594-10.25-11.448-9.823zm-33.584 74.125c-8.458 6.438-19.417 11.198-32.552 14.156-5.75 1.292-9.354 7-8.063 12.75 1.115 4.958 5.521 8.323 10.396 8.323.781 0 1.563-.083 2.354-.26 16.146-3.635 29.865-9.688 40.781-17.99 4.688-3.563 5.594-10.26 2.031-14.948-3.551-4.687-10.259-5.593-14.947-2.031zm88.469-245.521c1.427 4.563 5.635 7.479 10.177 7.479 1.052 0 2.125-.156 3.188-.49 5.615-1.76 8.75-7.74 6.99-13.365-.344-1.094-3.604-11.031-12.365-21.906a10.648 10.648 0 0 0-15-1.604c-4.583 3.698-5.302 10.406-1.604 15 6.229 7.73 8.604 14.876 8.614 14.886z"/><path d="M398.244 256.456a10.664 10.664 0 0 0 7.74 3.979c.198.01.396.021.594.021 2.823 0 5.531-1.115 7.542-3.125l9.427-9.417a10.631 10.631 0 0 0 3.104-8.125 10.694 10.694 0 0 0-3.979-7.75l-36.706-29.365 36.706-29.365a10.687 10.687 0 0 0 3.979-7.75 10.631 10.631 0 0 0-3.104-8.125l-9.427-9.417c-2.146-2.146-5.156-3.177-8.135-3.104a10.673 10.673 0 0 0-7.74 3.979l-29.359 36.702-29.359-36.702a10.664 10.664 0 0 0-7.74-3.979c-2.917-.031-5.979.958-8.135 3.104l-9.427 9.417a10.631 10.631 0 0 0-3.104 8.125 10.694 10.694 0 0 0 3.979 7.75l36.706 29.365-36.706 29.365a10.687 10.687 0 0 0-3.979 7.75 10.631 10.631 0 0 0 3.104 8.125l9.427 9.417a10.653 10.653 0 0 0 7.542 3.125c.198 0 .396-.01.594-.021a10.673 10.673 0 0 0 7.74-3.979l29.359-36.702 29.357 36.702z"/></symbol><symbol viewbox="0 0 418.271 418.271" id="treasure-map-1" xmlns="http://www.w3.org/2000/svg"><path d="M157.179 327.468a7.5 7.5 0 0 0-10.606 0l-16.697 16.697-16.697-16.697a7.5 7.5 0 0 0-10.606 0 7.5 7.5 0 0 0 0 10.606l16.697 16.697-16.697 16.697a7.5 7.5 0 0 0 0 10.606c1.464 1.465 3.384 2.197 5.303 2.197s3.839-.732 5.303-2.197l16.697-16.697 16.697 16.697c1.464 1.465 3.384 2.197 5.303 2.197s3.839-.732 5.303-2.197a7.5 7.5 0 0 0 0-10.606l-16.697-16.697 16.697-16.697a7.5 7.5 0 0 0 0-10.606zm27.501 21.108h-15.5a7.5 7.5 0 0 0 0 15h15.5a7.5 7.5 0 0 0 0-15zm149-54.5v7.263a7.5 7.5 0 0 0 15 0v-7.263c0-9.266-2.073-18.146-6.161-26.393a7.5 7.5 0 1 0-13.44 6.662c3.053 6.159 4.601 12.797 4.601 19.731zm-40.837 62.414a7.502 7.502 0 0 0 8.91 5.754c11.724-2.524 22.305-8.48 30.601-17.225a7.5 7.5 0 1 0-10.883-10.323c-6.208 6.544-14.118 10.999-22.875 12.885a7.498 7.498 0 0 0-5.753 8.909zm-65.95-7.914a7.5 7.5 0 0 0 0 15h31.157a7.5 7.5 0 0 0 0-15h-31.157zm62.288-99c4.46 0 8.86.656 13.077 1.95a7.497 7.497 0 0 0 2.203.332 7.5 7.5 0 0 0 2.197-14.672 59.515 59.515 0 0 0-17.477-2.61 7.5 7.5 0 0 0 0 15z"/><path d="M390.136 119.271H231.722l-3.511-14.923c13.931-7.011 23.517-21.437 23.517-38.068 0-20.928-15.176-38.367-35.098-41.923V7.5a7.5 7.5 0 0 0-15 0v16.858c-19.922 3.555-35.097 20.994-35.097 41.923 0 16.631 9.586 31.056 23.517 38.068l-3.511 14.923h-65.103a7.5 7.5 0 0 0-7.171 5.303l-5.699 18.606-5.239-17.106a7.5 7.5 0 1 0-14.342-.001l-8.627 28.157-9.081-29.656a7.5 7.5 0 0 0-7.171-5.304h-35.97a7.5 7.5 0 0 0-7.5 7.5v284a7.5 7.5 0 0 0 7.5 7.5h302.19a7.5 7.5 0 0 0 7.171-5.303l5.479-17.887 5.479 17.887a7.499 7.499 0 0 0 7.171 5.303h34.51a7.5 7.5 0 0 0 7.5-7.5v-284a7.5 7.5 0 0 0-7.5-7.5zm-208.603-52.99c0-12.617 8.515-23.276 20.097-26.553v9.929a7.5 7.5 0 0 0 15 0v-9.929c11.583 3.276 20.098 13.936 20.098 26.553 0 15.217-12.38 27.597-27.598 27.597s-27.597-12.38-27.597-27.597zm32.334 42.597l28.277 120.178h-7.125l-18.587-78.997a7.5 7.5 0 0 0-14.602 0l-18.587 78.997h-7.125l28.277-120.178h9.472zm.512 97.953h-10.498l5.249-22.308 5.249 22.308zm168.257 196.44h-21.463l-11.025-35.997a7.5 7.5 0 0 0-14.342 0l-11.025 35.997H35.636v-269h22.922l14.626 47.766a7.5 7.5 0 1 0 14.342.001l8.627-28.16 5.24 17.11a7.5 7.5 0 0 0 14.342.001l11.246-36.717h56.027l-23.663 100.567a7.501 7.501 0 0 0 7.3 9.218h1.802l-10.488 44.568a7.5 7.5 0 0 0 14.601 3.436l11.296-48.004h5.323a7.501 7.501 0 0 0 7.301-5.782l3.869-16.443h17.557l3.869 16.443a7.5 7.5 0 0 0 7.301 5.782h5.33l11.296 48.004a7.504 7.504 0 0 0 7.294 5.784 7.5 7.5 0 0 0 7.307-9.22l-10.488-44.568h1.795a7.501 7.501 0 0 0 7.3-9.218l-23.663-100.567h147.384v268.999z"/></symbol><symbol viewbox="0 0 511.999 511.999" id="trophy" xmlns="http://www.w3.org/2000/svg"><path d="M466.45 49.374a37.048 37.048 0 0 0-28.267-13.071H402.41v-11.19C402.41 11.266 391.143 0 377.297 0H134.705c-13.848 0-25.112 11.266-25.112 25.112v11.19H73.816a37.05 37.05 0 0 0-28.267 13.071c-6.992 8.221-10.014 19.019-8.289 29.624 9.4 57.8 45.775 108.863 97.4 136.872 4.717 11.341 10.059 22.083 16.008 32.091 19.002 31.975 42.625 54.073 68.627 64.76 2.635 26.644-15.094 51.885-41.794 57.9-.057.013-.097.033-.153.046-5.211 1.245-9.09 5.921-9.09 11.513v54.363h-21.986c-19.602 0-35.549 15.947-35.549 35.549v28.058c0 6.545 5.305 11.85 11.85 11.85H390.56c6.545 0 11.85-5.305 11.85-11.85v-28.058c0-19.602-15.947-35.549-35.549-35.549h-21.988V382.18c0-5.603-3.893-10.286-9.118-11.52-.049-.012-.096-.028-.145-.04-26.902-6.055-44.664-31.55-41.752-58.394 25.548-10.86 48.757-32.761 67.479-64.264 5.949-10.009 11.29-20.752 16.008-32.095 51.622-28.01 87.995-79.072 97.395-136.87 1.725-10.605-1.297-21.402-8.29-29.623zM60.652 75.192c-.616-3.787.431-7.504 2.949-10.466A13.388 13.388 0 0 1 73.815 60h35.777v21.802c0 34.186 4.363 67.3 12.632 97.583-32.496-25.679-54.87-62.982-61.572-104.193zm306.209 385.051c6.534 0 11.85 5.316 11.85 11.85v16.208H134.422v-16.208c0-6.534 5.316-11.85 11.85-11.85h220.589zm-45.688-66.213v42.513H191.96V394.03h129.213zm-98.136-23.699a78.449 78.449 0 0 0 8.002-10.46c7.897-12.339 12.042-26.357 12.228-40.674 4.209.573 8.457.88 12.741.88a94.34 94.34 0 0 0 13.852-1.036c.27 19.239 7.758 37.45 20.349 51.289h-67.172zM378.709 81.803c0 58.379-13.406 113.089-37.747 154.049-23.192 39.03-53.364 60.525-84.956 60.525-31.597 0-61.771-21.494-84.966-60.523-24.342-40.961-37.748-95.671-37.748-154.049V25.112c0-.78.634-1.413 1.412-1.413h242.591c.78 0 1.414.634 1.414 1.413v56.691zm72.639-6.611c-6.702 41.208-29.074 78.51-61.569 104.191 8.268-30.283 12.631-63.395 12.631-97.58V60.001h35.773c3.938 0 7.66 1.723 10.214 4.726 2.518 2.961 3.566 6.678 2.951 10.465z"/><path d="M327.941 121.658a11.857 11.857 0 0 0-9.566-8.064l-35.758-5.196-15.991-32.402a11.852 11.852 0 0 0-21.252 0l-15.991 32.402-35.758 5.196a11.849 11.849 0 0 0-6.567 20.213l25.875 25.221-6.109 35.613a11.848 11.848 0 0 0 17.193 12.492L256 190.32l31.982 16.813a11.843 11.843 0 0 0 12.478-.903 11.848 11.848 0 0 0 4.714-11.59l-6.109-35.613 25.875-25.221a11.849 11.849 0 0 0 3.001-12.148zm-49.877 24.747a11.847 11.847 0 0 0-3.408 10.489l3.102 18.09-16.245-8.541a11.86 11.86 0 0 0-11.028 0l-16.245 8.541 3.102-18.09a11.849 11.849 0 0 0-3.408-10.489l-13.141-12.81 18.162-2.64a11.849 11.849 0 0 0 8.922-6.482L256 108.015l8.122 16.458a11.851 11.851 0 0 0 8.922 6.482l18.162 2.64-13.142 12.81z"/></symbol><symbol viewbox="0 0 410.155 410.155" id="tw" xmlns="http://www.w3.org/2000/svg"><path d="M403.632 74.18a162.414 162.414 0 0 1-28.28 9.537 88.177 88.177 0 0 0 23.275-37.067c1.295-4.051-3.105-7.554-6.763-5.385a163.188 163.188 0 0 1-43.235 17.862 11.02 11.02 0 0 1-2.702.336c-2.766 0-5.455-1.027-7.57-2.891-16.156-14.239-36.935-22.081-58.508-22.081-9.335 0-18.76 1.455-28.014 4.325-28.672 8.893-50.795 32.544-57.736 61.724-2.604 10.945-3.309 21.9-2.097 32.56a3.166 3.166 0 0 1-.797 2.481 3.278 3.278 0 0 1-2.753 1.091c-62.762-5.831-119.358-36.068-159.363-85.14-2.04-2.503-5.952-2.196-7.578.593-7.834 13.44-11.974 28.812-11.974 44.454 0 23.972 9.631 46.563 26.36 63.032a79.24 79.24 0 0 1-20.169-7.808c-3.06-1.7-6.825.485-6.868 3.985-.438 35.612 20.412 67.3 51.646 81.569a79.567 79.567 0 0 1-16.786-1.399c-3.446-.658-6.341 2.611-5.271 5.952 10.138 31.651 37.39 54.981 70.002 60.278-27.066 18.169-58.585 27.753-91.39 27.753l-10.227-.006c-3.151 0-5.816 2.054-6.619 5.106-.791 3.006.666 6.177 3.353 7.74 36.966 21.513 79.131 32.883 121.955 32.883 37.485 0 72.549-7.439 104.219-22.109 29.033-13.449 54.689-32.674 76.255-57.141 20.09-22.792 35.8-49.103 46.692-78.201 10.383-27.737 15.871-57.333 15.871-85.589v-1.346c-.001-4.537 2.051-8.806 5.631-11.712a174.776 174.776 0 0 0 35.16-38.591c2.573-3.849-1.485-8.673-5.719-6.795z"/></symbol><symbol viewbox="0 0 60 60" id="users" xmlns="http://www.w3.org/2000/svg"><path d="M41.014 45.389l-9.553-4.776A2.63 2.63 0 0 1 30 38.248v-3.381c.229-.28.47-.599.719-.951a22.886 22.886 0 0 0 2.954-5.799A3.968 3.968 0 0 0 36 24.5v-4c0-.963-.36-1.896-1-2.625v-5.319c.056-.55.276-3.824-2.092-6.525C30.854 3.688 27.521 2.5 23 2.5s-7.854 1.188-9.908 3.53c-2.368 2.701-2.148 5.976-2.092 6.525v5.319c-.64.729-1 1.662-1 2.625v4c0 1.217.553 2.352 1.497 3.109.916 3.627 2.833 6.36 3.503 7.237v3.309c0 .968-.528 1.856-1.377 2.32L4.702 45.34A9.02 9.02 0 0 0 0 53.262V57.5h46v-4.043a8.972 8.972 0 0 0-4.986-8.068z"/><path d="M55.467 46.526l-9.723-4.21c-.23-.115-.485-.396-.704-.771l6.525-.005s.377.037.962.037c1.073 0 2.638-.122 4-.707a2.94 2.94 0 0 0 1.669-1.907 2.967 2.967 0 0 0-.426-2.523c-1.865-2.654-6.218-9.589-6.354-16.623-.003-.121-.397-12.083-12.21-12.18-1.187.01-2.309.156-3.372.413.792 2.094.719 3.968.665 4.576v4.733c.648.922 1 2.017 1 3.141v4a5.496 5.496 0 0 1-2.607 4.662 24.305 24.305 0 0 1-3.392 6.225v2.86c0 .442.236.825.631 1.022l9.553 4.776a10.463 10.463 0 0 1 5.815 9.41V57.5H60v-3.697c0-3.092-1.718-5.87-4.533-7.277z"/></symbol><symbol viewbox="0 0 438.53 438.54" id="yt" xmlns="http://www.w3.org/2000/svg"><path d="M414.41 24.123C398.333 8.042 378.963 0 356.315 0H82.228C59.58 0 40.21 8.042 24.126 24.123 8.045 40.207.003 59.576.003 82.225v274.084c0 22.647 8.042 42.018 24.123 58.102 16.084 16.084 35.454 24.126 58.102 24.126h274.084c22.648 0 42.018-8.042 58.095-24.126 16.084-16.084 24.126-35.454 24.126-58.102V82.225c-.001-22.649-8.043-42.021-24.123-58.102zM258.958 63.378h19.13v77.654c0 4.57.089 7.045.28 7.426.192 3.046 1.719 4.567 4.572 4.567 3.806 0 7.807-2.948 11.991-8.848V63.378h19.13v105.637h-19.137V157.59c-7.803 8.563-15.129 12.85-21.98 12.85-6.088 0-10.181-2.568-12.278-7.708-1.144-3.424-1.708-8.66-1.708-15.704v-83.65zM186.725 97.64c0-11.038 1.999-19.32 5.996-24.838 5.138-7.232 12.559-10.85 22.266-10.85 9.329 0 16.754 3.621 22.268 10.85 4 5.519 5.999 13.8 5.999 24.838v37.117c0 11.421-1.999 19.701-5.999 24.839-5.514 7.236-12.939 10.852-22.268 10.852-9.707 0-17.128-3.619-22.266-10.852-3.997-5.52-5.996-13.8-5.996-24.839V97.64zm-51.394-70.521l15.133 55.677 14.56-55.677h21.414l-25.697 84.51h.004v57.386h-21.127v-57.386c-2.096-10.468-6.473-25.505-13.134-45.108l-6.567-19.701-6.855-19.701h22.269zm235.262 344.61c-1.903 8.18-5.948 15.126-12.139 20.842-6.181 5.708-13.363 9.041-21.55 9.996-26.073 2.851-65.288 4.28-117.628 4.28-52.344 0-91.553-1.43-117.628-4.28-8.183-.955-15.367-4.288-21.555-9.996-6.186-5.716-10.229-12.662-12.133-20.842-3.805-15.991-5.708-40.737-5.708-74.233 0-32.935 1.903-57.67 5.708-74.233 1.905-8.375 5.948-15.371 12.133-20.988 6.188-5.617 13.466-8.901 21.842-9.851 25.882-2.859 64.997-4.284 117.341-4.284 52.535 0 91.746 1.429 117.628 4.284 8.187.953 15.41 4.233 21.693 9.851 6.283 5.614 10.38 12.609 12.282 20.988 3.61 15.797 5.421 40.539 5.421 74.233.001 33.495-1.903 58.237-5.707 74.233z"/><path d="M85.651 244.678h22.27v120.767h21.127V244.678h22.841v-19.986H85.651zm104.498 95.929c-4.187 5.896-8.186 8.847-11.991 8.847-2.665 0-4.093-1.427-4.283-4.281-.191-.38-.287-2.854-.287-7.426v-77.088h-18.843v82.796c0 7.234.572 12.374 1.715 15.413 1.712 5.332 5.711 7.994 11.991 7.994 7.042 0 14.275-4.281 21.698-12.847v11.424h19.126V260.666h-19.126v79.941zm73.95-81.372c-6.852 0-13.326 3.806-19.411 11.423v-45.966h-19.13v140.753h19.13v-10.279c6.276 7.802 12.755 11.703 19.411 11.703 7.806 0 12.847-3.997 15.126-11.991 1.334-3.997 1.998-10.944 1.998-20.841v-41.682c0-10.089-.671-17.132-1.998-21.129-2.28-7.994-7.321-11.991-15.126-11.991zm-1.715 76.233c0 9.325-2.758 13.982-8.281 13.989-3.23 0-6.376-1.525-9.422-4.571v-63.954c3.046-3.038 6.191-4.564 9.422-4.564 5.523 0 8.281 4.753 8.281 14.271v44.829zm71.082-.144c0 1.998-.049 3.565-.137 4.709-.093 1.143-.145 1.81-.145 1.998-1.14 4.945-3.997 7.419-8.565 7.419-6.472 0-9.709-4.853-9.709-14.558v-18.555h37.973v-21.703c0-11.037-1.995-19.219-5.995-24.551-5.134-7.231-12.56-10.852-22.269-10.852s-17.319 3.62-22.843 10.852c-3.806 5.14-5.708 13.329-5.708 24.551v36.832c0 11.231 1.998 19.418 5.995 24.558 5.523 7.231 13.23 10.852 23.131 10.852 10.088 0 17.699-3.806 22.843-11.423 2.282-3.429 3.716-7.234 4.284-11.42.377-2.666.568-6.759.568-12.278v-2.57h-19.417v6.14h-.006zm-18.549-44.399c0-9.705 3.142-14.558 9.422-14.558 6.283 0 9.421 4.853 9.421 14.558v9.712h-18.843v-9.712zm-99.93-137.9c6.091 0 9.135-4.851 9.135-14.558v-44.54c0-9.895-3.044-14.847-9.135-14.847-6.09 0-9.135 4.952-9.135 14.847v44.54c0 9.704 3.045 14.558 9.135 14.558z"/></symbol></svg>