<?xml version="1.0" standalone="no"?>
<!DOCTYPE svg PUBLIC "-//W3C//DTD SVG 20010904//EN"
 "http://www.w3.org/TR/2001/REC-SVG-20010904/DTD/svg10.dtd">
<svg version="1.0" xmlns="http://www.w3.org/2000/svg"
 width="206.000000pt" height="206.000000pt" viewBox="0 0 206.000000 206.000000"
 preserveAspectRatio="xMidYMid meet">
<metadata>
Created by potrace 1.11, written by Peter Selinger 2001-2013
</metadata>
<g transform="translate(0.000000,206.000000) scale(0.100000,-0.100000)"
fill="#000000" stroke="none">
<path d="M781 1919 c-134 -76 -247 -139 -252 -139 -5 0 -9 -4 -9 -10 0 -5 -4
-10 -9 -10 -13 0 -364 -201 -376 -215 -6 -8 -10 -196 -10 -521 l0 -509 215
-123 c118 -68 242 -139 275 -157 33 -19 139 -79 235 -134 l175 -100 40 24 c22
13 67 38 100 56 33 17 65 36 71 40 6 5 31 20 55 33 24 13 64 35 89 49 25 15
75 44 112 64 38 21 68 41 68 45 0 7 -155 100 -165 99 -3 -1 -14 8 -25 19 -25
25 -32 23 -198 -74 -72 -42 -133 -76 -137 -76 -4 0 -75 40 -158 88 -84 49
-229 133 -323 188 l-171 99 1 378 1 379 328 190 c304 175 330 188 346 174 10
-9 20 -16 23 -16 3 0 79 -43 168 -95 89 -52 163 -95 165 -95 3 0 117 -67 155
-90 8 -5 36 -20 62 -34 40 -21 49 -22 59 -10 6 7 15 11 20 9 4 -3 12 3 18 12
5 10 12 17 15 16 13 -6 23 -2 44 17 12 12 22 18 22 15 0 -3 18 6 39 19 21 14
42 22 45 19 3 -4 6 -1 6 4 0 9 -91 73 -104 73 -3 0 -39 20 -80 45 -42 25 -81
45 -86 45 -6 0 -10 5 -10 10 0 6 -4 10 -9 10 -5 0 -85 43 -178 97 -92 53 -193
110 -223 126 -30 17 -71 40 -90 52 -19 12 -49 29 -65 38 l-31 15 -243 -139z"/>
<path d="M1020 1691 c-14 -10 -148 -86 -297 -170 l-273 -153 0 -338 0 -339 53
-29 c28 -16 72 -41 97 -54 25 -14 119 -68 210 -119 91 -52 181 -103 201 -113
l36 -19 106 59 c59 32 107 63 108 69 2 10 -75 58 -232 147 -13 7 -33 20 -44
29 -11 9 -78 49 -150 89 -71 41 -131 75 -133 76 -3 2 -4 170 -2 345 l0 56 169
97 c154 88 171 95 192 83 13 -7 85 -47 161 -90 125 -72 138 -77 160 -65 12 7
25 16 28 19 3 3 37 23 75 44 39 21 73 42 76 47 3 6 9 9 13 9 3 0 13 2 21 6 21
7 27 4 -265 168 -135 75 -254 143 -265 150 -18 11 -25 10 -45 -4z"/>
<path d="M1653 1352 l-272 -157 -1 -138 0 -139 33 20 c17 10 141 81 275 157
l242 138 0 139 c0 76 -1 138 -2 138 -2 0 -125 -71 -275 -158z"/>
<path d="M1926 1143 c-4 -5 -11 -8 -14 -8 -12 0 -167 -88 -173 -98 -3 -5 -10
-9 -15 -9 -28 -1 -31 -14 -30 -183 1 -125 5 -178 14 -187 6 -6 12 -8 12 -2 0
5 4 4 8 -2 10 -15 202 -125 203 -116 2 8 5 612 3 612 0 0 -4 -3 -8 -7z"/>
<path d="M1535 924 c-44 -25 -94 -52 -112 -61 -24 -12 -29 -19 -20 -28 7 -7
15 -11 20 -8 4 2 7 -1 7 -6 0 -6 7 -11 15 -11 8 0 15 -5 15 -11 0 -5 5 -7 11
-3 6 3 14 2 18 -3 11 -16 123 -75 129 -68 8 8 10 245 2 245 -3 -1 -41 -21 -85
-46z"/>
<path d="M1255 758 c-38 -22 -89 -51 -113 -65 l-43 -24 117 -70 c64 -38 118
-69 120 -69 2 0 28 -16 58 -35 30 -19 60 -35 66 -35 5 0 10 -4 10 -10 0 -5 4
-10 10 -10 5 0 44 -21 85 -46 82 -50 76 -50 150 -6 17 9 61 34 98 55 38 22 67
40 65 42 -17 14 -538 315 -545 314 -4 0 -39 -19 -78 -41z"/>
</g>
</svg>
